<mxfile host="app.diagrams.net" agent="Mozilla/5.0 (Windows NT 10.0; Win64; x64) AppleWebKit/537.36 (KHTML, like Gecko) Chrome/130.0.0.0 Safari/537.36" version="24.8.6">
  <diagram name="Page-1" id="79Nh6v9_tML0ab6BTNlv">
    <mxGraphModel dx="724" dy="360" grid="1" gridSize="10" guides="1" tooltips="1" connect="1" arrows="1" fold="1" page="1" pageScale="1" pageWidth="850" pageHeight="1100" math="0" shadow="0">
      <root>
        <mxCell id="0" />
        <mxCell id="1" parent="0" />
        <mxCell id="YDkcvD-6xhXdViTcMp_W-3" value="" style="edgeStyle=orthogonalEdgeStyle;rounded=0;orthogonalLoop=1;jettySize=auto;html=1;" edge="1" parent="1" source="YDkcvD-6xhXdViTcMp_W-1" target="YDkcvD-6xhXdViTcMp_W-2">
          <mxGeometry relative="1" as="geometry" />
        </mxCell>
        <mxCell id="YDkcvD-6xhXdViTcMp_W-1" value="Початок" style="ellipse;whiteSpace=wrap;html=1;" vertex="1" parent="1">
          <mxGeometry x="350" y="60" width="120" height="50" as="geometry" />
        </mxCell>
        <mxCell id="YDkcvD-6xhXdViTcMp_W-5" value="" style="edgeStyle=orthogonalEdgeStyle;rounded=0;orthogonalLoop=1;jettySize=auto;html=1;" edge="1" parent="1" source="YDkcvD-6xhXdViTcMp_W-2" target="YDkcvD-6xhXdViTcMp_W-4">
          <mxGeometry relative="1" as="geometry" />
        </mxCell>
        <mxCell id="YDkcvD-6xhXdViTcMp_W-2" value="Ініціалізуємо змінні" style="rounded=1;whiteSpace=wrap;html=1;" vertex="1" parent="1">
          <mxGeometry x="350" y="160" width="120" height="40" as="geometry" />
        </mxCell>
        <mxCell id="YDkcvD-6xhXdViTcMp_W-7" value="" style="edgeStyle=orthogonalEdgeStyle;rounded=0;orthogonalLoop=1;jettySize=auto;html=1;" edge="1" parent="1" source="YDkcvD-6xhXdViTcMp_W-4" target="YDkcvD-6xhXdViTcMp_W-6">
          <mxGeometry relative="1" as="geometry" />
        </mxCell>
        <mxCell id="YDkcvD-6xhXdViTcMp_W-4" value="Виконуємо обчислення" style="rounded=1;whiteSpace=wrap;html=1;" vertex="1" parent="1">
          <mxGeometry x="350" y="240" width="120" height="40" as="geometry" />
        </mxCell>
        <mxCell id="YDkcvD-6xhXdViTcMp_W-9" value="" style="edgeStyle=orthogonalEdgeStyle;rounded=0;orthogonalLoop=1;jettySize=auto;html=1;" edge="1" parent="1" source="YDkcvD-6xhXdViTcMp_W-6" target="YDkcvD-6xhXdViTcMp_W-8">
          <mxGeometry relative="1" as="geometry" />
        </mxCell>
        <mxCell id="YDkcvD-6xhXdViTcMp_W-6" value="Виводимо результати обчислень" style="shape=parallelogram;perimeter=parallelogramPerimeter;whiteSpace=wrap;html=1;fixedSize=1;" vertex="1" parent="1">
          <mxGeometry x="350" y="330" width="120" height="60" as="geometry" />
        </mxCell>
        <mxCell id="YDkcvD-6xhXdViTcMp_W-8" value="Кінець" style="ellipse;whiteSpace=wrap;html=1;" vertex="1" parent="1">
          <mxGeometry x="350" y="450" width="120" height="50" as="geometry" />
        </mxCell>
      </root>
    </mxGraphModel>
  </diagram>
</mxfile>
